<?xml version="1.0" encoding="UTF-8"?>
<svg width="1920" height="900" viewBox="0 0 1920 900" fill="none" xmlns="http://www.w3.org/2000/svg">
  <defs>
    <!-- Fondo base -->
    <linearGradient id="g0" x1="0" y1="0" x2="0" y2="1">
      <stop offset="0" stop-color="#2E2A28"/>
      <stop offset="0.35" stop-color="#3A3230"/>
      <stop offset="0.7" stop-color="#2B2A2B"/>
      <stop offset="1" stop-color="#1E1F22"/>
    </linearGradient>

    <!-- Glow cálido a la derecha -->
    <radialGradient id="warm" cx="0" cy="0" r="1" gradientUnits="userSpaceOnUse"
      gradientTransform="translate(1500 220) rotate(90) scale(520 820)">
      <stop offset="0" stop-color="#F8C46B" stop-opacity="0.55"/>
      <stop offset="0.35" stop-color="#F29A4A" stop-opacity="0.22"/>
      <stop offset="1" stop-color="#000000" stop-opacity="0"/>
    </radialGradient>

    <!-- Glow frío (ambiente) -->
    <radialGradient id="cool" cx="0" cy="0" r="1" gradientUnits="userSpaceOnUse"
      gradientTransform="translate(520 220) rotate(90) scale(420 760)">
      <stop offset="0" stop-color="#6AA7FF" stop-opacity="0.18"/>
      <stop offset="1" stop-color="#000000" stop-opacity="0"/>
    </radialGradient>

    <!-- Reflejo piso -->
    <linearGradient id="floor" x1="0" y1="580" x2="0" y2="900" gradientUnits="userSpaceOnUse">
      <stop offset="0" stop-color="#0B0D12" stop-opacity="0.0"/>
      <stop offset="0.35" stop-color="#0B0D12" stop-opacity="0.35"/>
      <stop offset="1" stop-color="#0B0D12" stop-opacity="0.9"/>
    </linearGradient>

    <!-- Blur de bokeh -->
    <filter id="bokehBlur" x="-40%" y="-40%" width="180%" height="180%">
      <feGaussianBlur stdDeviation="18" />
    </filter>

    <!-- Soft blur grande (ambiente) -->
    <filter id="softBlur" x="-20%" y="-20%" width="140%" height="140%">
      <feGaussianBlur stdDeviation="40" />
    </filter>

    <!-- Film grain (muy sutil) -->
    <filter id="grain" x="0" y="0" width="100%" height="100%">
      <feTurbulence type="fractalNoise" baseFrequency="0.9" numOctaves="2" stitchTiles="stitch" />
      <feColorMatrix type="matrix"
        values="0 0 0 0 0
                0 0 0 0 0
                0 0 0 0 0
                0 0 0 .06 0"/>
    </filter>

    <!-- Viñeta -->
    <radialGradient id="vignette" cx="0" cy="0" r="1" gradientUnits="userSpaceOnUse"
      gradientTransform="translate(960 430) rotate(90) scale(520 980)">
      <stop offset="0.55" stop-color="#000000" stop-opacity="0"/>
      <stop offset="1" stop-color="#000000" stop-opacity="0.55"/>
    </radialGradient>
  </defs>

  <!-- Base -->
  <rect width="1920" height="900" fill="url(#g0)"/>

  <!-- Ambientes -->
  <rect width="1920" height="900" fill="url(#cool)"/>
  <rect width="1920" height="900" fill="url(#warm)"/>

  <!-- “Arquitectura” sutil -->
  <g opacity="0.25" filter="url(#softBlur)">
    <rect x="150" y="140" width="420" height="540" rx="40" fill="#1B2330"/>
    <rect x="680" y="120" width="560" height="620" rx="50" fill="#1A1F29"/>
    <rect x="1300" y="160" width="520" height="560" rx="50" fill="#22262E"/>
  </g>

  <!-- Columna + planta izquierda (sutil, estilo foto) -->
  <g opacity="0.55">
    <rect x="110" y="180" width="190" height="520" rx="30" fill="#252321" />
    <rect x="130" y="200" width="150" height="480" rx="26" fill="#2C2927" opacity="0.85"/>
    <!-- Lámpara cálida -->
    <g filter="url(#bokehBlur)" opacity="0.9">
      <circle cx="235" cy="330" r="42" fill="#F6C26B" opacity="0.45"/>
      <circle cx="235" cy="330" r="22" fill="#FFE3A8" opacity="0.55"/>
    </g>
    <!-- “Planta” -->
    <g opacity="0.65">
      <path d="M255 260 C210 250, 185 215, 165 190 C195 190, 240 210, 280 245 C295 258, 285 265, 255 260 Z" fill="#1F3A2D"/>
      <path d="M240 275 C205 280, 175 260, 150 235 C170 228, 210 232, 255 258 C270 268, 265 277, 240 275 Z" fill="#214234" opacity="0.9"/>
      <path d="M260 300 C228 310, 200 300, 170 276 C198 268, 235 272, 275 292 C287 298, 282 306, 260 300 Z" fill="#1B3A2D" opacity="0.9"/>
    </g>
  </g>

  <!-- Bokeh luces (derecha principalmente) -->
  <g filter="url(#bokehBlur)">
    <circle cx="1540" cy="180" r="64" fill="#FFD08A" opacity="0.28"/>
    <circle cx="1660" cy="240" r="52" fill="#FFB55B" opacity="0.20"/>
    <circle cx="1780" cy="190" r="44" fill="#FFE3A8" opacity="0.18"/>
    <circle cx="1620" cy="150" r="30" fill="#FFFFFF" opacity="0.10"/>

    <circle cx="1460" cy="320" r="50" fill="#FFB55B" opacity="0.16"/>
    <circle cx="1720" cy="330" r="70" fill="#FFD08A" opacity="0.14"/>
    <circle cx="1820" cy="380" r="46" fill="#FFE3A8" opacity="0.12"/>

    <circle cx="1580" cy="520" r="80" fill="#FFB55B" opacity="0.10"/>
    <circle cx="1760" cy="560" r="58" fill="#FFD08A" opacity="0.09"/>
  </g>

  <!-- Piso / reflejo -->
  <rect x="0" y="560" width="1920" height="340" fill="url(#floor)"/>

  <!-- Viñeta -->
  <rect width="1920" height="900" fill="url(#vignette)"/>

  <!-- Grain sutil -->
  <rect width="1920" height="900" filter="url(#grain)" opacity="0.35"/>
</svg>